<!DOCTYPE svg PUBLIC "-//W3C//DTD SVG 20010904//EN" "http://www.w3.org/TR/2001/REC-SVG-20010904/DTD/svg10.dtd">
<svg version="1.0" xmlns="http://www.w3.org/2000/svg" width="135px" height="128px" viewBox="0 0 1350 1280" preserveAspectRatio="xMidYMid meet">
<g id="layer101" fill="#217439" stroke="none">
<path d="M215 1053 c25 -145 92 -226 213 -259 26 -7 37 -13 25 -13 -35 -1 -107 -36 -147 -72 -21 -18 -49 -55 -64 -83 -24 -45 -27 -62 -27 -151 0 -89 3 -106 27 -151 37 -71 100 -121 182 -146 31 -9 695 -12 704 -3 3 3 -3 34 -13 70 -27 102 -91 179 -174 212 l-44 17 57 26 c72 34 117 75 147 137 19 40 23 64 24 143 0 82 -4 102 -25 144 -32 64 -81 113 -139 140 -44 20 -64 21 -399 24 l-353 3 6 -38z"/>
</g>
<g id="layer102" fill="#267c47" stroke="none">
<path d="M215 1053 c25 -145 92 -226 213 -259 26 -7 37 -13 25 -13 -35 -1 -107 -36 -147 -72 -21 -18 -49 -55 -64 -83 -24 -45 -27 -62 -27 -151 0 -89 3 -106 27 -151 37 -71 100 -121 182 -146 31 -9 695 -12 704 -3 3 3 -3 34 -13 70 -27 102 -91 179 -174 212 l-44 17 57 26 c116 54 166 131 171 265 2 44 1 68 -1 53 -5 -24 -10 -28 -37 -27 -29 2 -29 2 -6 6 22 3 28 11 33 43 7 42 -7 90 -25 90 -7 0 -9 3 -6 7 4 3 -2 13 -14 21 -11 8 -18 20 -15 27 3 8 -3 19 -12 27 -15 11 -16 11 -7 -2 6 -9 -1 -4 -15 11 -25 26 -61 49 -77 49 -4 -1 3 -8 17 -16 17 -10 18 -13 5 -9 -11 4 -28 10 -38 13 -15 4 -16 7 -5 14 8 5 -2 6 -27 3 -30 -5 -36 -4 -25 4 11 8 -82 11 -323 11 l-338 0 6 -37z m790 -23 c3 -5 4 -10 1 -10 -3 0 -8 5 -11 10 -3 6 -4 10 -1 10 3 0 8 -4 11 -10z m102 -162 c-3 -8 -6 -5 -6 6 -1 11 2 17 5 13 3 -3 4 -12 1 -19z m-104 -75 c-29 -2 -77 -2 -105 0 -29 2 -6 3 52 3 58 0 81 -1 53 -3z"/>
</g>
<g id="layer103" fill="#248445" stroke="none">
<path d="M215 1053 c25 -145 92 -226 213 -259 26 -7 37 -13 25 -13 -35 -1 -107 -36 -147 -72 -21 -18 -49 -55 -64 -83 -24 -45 -27 -62 -27 -151 0 -89 3 -106 27 -151 37 -71 100 -121 182 -146 31 -9 695 -12 704 -3 3 3 -3 34 -13 70 -27 102 -91 179 -174 212 l-44 17 57 26 c104 49 159 123 172 235 l7 55 -39 1 c-30 2 -33 3 -11 6 20 3 27 10 27 26 0 12 3 33 5 47 4 20 4 21 -3 6 -8 -18 -10 -16 -20 13 -6 18 -15 30 -19 28 -5 -3 -8 8 -9 24 -1 18 3 26 10 22 6 -3 7 -2 3 3 -5 5 -12 9 -15 9 -4 0 -23 12 -43 28 -20 15 -41 27 -47 27 -16 0 -15 20 1 20 6 0 4 5 -6 11 -9 5 -23 7 -30 2 -18 -11 -37 -13 -37 -3 0 5 8 11 18 13 9 2 -8 3 -38 1 -43 -3 -48 -1 -25 5 18 5 -104 9 -308 10 l-338 1 6 -37z m662 0 c-4 -3 -10 -3 -14 0 -3 4 0 7 7 7 7 0 10 -3 7 -7z m80 0 c-4 -3 -10 -3 -14 0 -3 4 0 7 7 7 7 0 10 -3 7 -7z m53 -83 c0 -5 -5 -10 -11 -10 -5 0 -7 5 -4 10 3 6 8 10 11 10 2 0 4 -4 4 -10z m-7 -177 c-29 -2 -77 -2 -105 0 -29 2 -6 3 52 3 58 0 81 -1 53 -3z"/>
</g>
<g id="layer104" fill="#1d8558" stroke="none">
<path d="M215 1053 c25 -145 92 -226 213 -259 26 -7 37 -13 25 -13 -35 -1 -107 -36 -147 -72 -21 -18 -49 -55 -64 -83 -24 -45 -27 -62 -27 -151 0 -89 3 -106 27 -151 37 -71 100 -121 182 -146 31 -9 695 -12 704 -3 3 3 -3 34 -13 70 -27 102 -91 179 -174 212 l-44 17 57 26 c104 48 159 123 172 232 l6 53 -148 -3 -149 -3 0 150 0 150 25 4 c14 2 -127 5 -313 6 l-338 1 6 -37z"/>
<path d="M908 1073 c7 -3 16 -2 19 1 4 3 -2 6 -13 5 -11 0 -14 -3 -6 -6z"/>
<path d="M950 1060 c8 -5 20 -10 25 -10 6 0 3 5 -5 10 -8 5 -19 10 -25 10 -5 0 -3 -5 5 -10z"/>
<path d="M990 1046 c0 -2 8 -10 18 -17 15 -13 16 -12 3 4 -13 16 -21 21 -21 13z"/>
<path d="M1065 970 c3 -5 8 -10 11 -10 3 0 2 5 -1 10 -3 6 -8 10 -11 10 -3 0 -2 -4 1 -10z"/>
<path d="M1096 917 c3 -10 9 -15 12 -12 3 3 0 11 -7 18 -10 9 -11 8 -5 -6z"/>
</g>
<g id="layer105" fill="#ea1c22" stroke="none">
<path d="M215 1053 c25 -145 92 -226 213 -259 26 -7 37 -13 25 -13 -35 -1 -107 -36 -147 -72 -21 -18 -49 -55 -64 -83 -24 -45 -27 -62 -27 -151 0 -89 3 -106 27 -151 37 -71 100 -121 182 -146 31 -9 695 -12 704 -3 3 3 -3 34 -13 70 -27 102 -91 179 -174 212 l-44 17 57 26 c104 48 159 123 172 232 l6 53 -156 -3 -157 -3 3 156 3 155 -308 0 -308 0 6 -37z"/>
</g>
<g id="layer106" fill="#0193d8" stroke="none">
<path d="M215 1053 c25 -145 92 -226 213 -259 26 -7 37 -13 25 -13 -35 -1 -107 -36 -147 -72 -21 -18 -49 -55 -64 -83 -24 -45 -27 -62 -27 -151 0 -89 3 -106 27 -151 29 -55 69 -94 127 -123 67 -34 39 -32 599 -31 162 0 162 0 161 23 -1 16 -2 18 -6 4 -4 -15 -20 -17 -154 -17 l-150 0 3 148 3 147 25 -3 c14 -1 36 -5 50 -8 16 -3 20 -1 12 4 -8 6 6 17 45 34 100 45 156 121 169 230 l6 53 -156 -3 -157 -3 3 156 3 155 -308 0 -308 0 6 -37z"/>
</g>
<g id="layer107" fill="#cd5256" stroke="none">
<path d="M215 1053 c25 -145 92 -226 213 -259 26 -7 37 -13 25 -13 -35 -1 -107 -36 -147 -72 -21 -18 -49 -55 -64 -83 -24 -45 -27 -62 -27 -151 0 -89 3 -106 27 -151 29 -55 69 -94 127 -123 67 -34 39 -32 599 -31 162 0 162 0 161 23 -1 16 -2 18 -6 4 -4 -15 -20 -17 -154 -17 l-150 0 3 148 3 147 25 -3 c14 -1 36 -5 50 -8 16 -3 20 -1 12 4 -8 6 6 17 45 34 100 45 156 121 169 230 l6 53 -156 -3 c-86 -2 -156 1 -156 5 0 4 -68 7 -150 5 l-151 -3 3 143 3 143 148 2 c82 1 151 4 155 7 3 3 -135 6 -307 6 l-312 0 6 -37z"/>
<path d="M955 443 c17 -8 39 -23 50 -32 19 -15 19 -15 6 2 -15 18 -63 47 -78 47 -4 -1 6 -8 22 -17z"/>
<path d="M1030 398 c0 -3 16 -29 35 -58 19 -29 35 -48 35 -43 0 5 -16 32 -35 59 -19 27 -35 46 -35 42z"/>
<path d="M1100 270 c0 -7 3 -10 7 -7 3 4 3 10 0 14 -4 3 -7 0 -7 -7z"/>
<path d="M1111 234 c0 -11 3 -14 6 -6 3 7 2 16 -1 19 -3 4 -6 -2 -5 -13z"/>
</g>
<g id="layer108" fill="#f5811e" stroke="none">
<path d="M215 1053 c25 -145 92 -226 213 -259 26 -7 37 -13 25 -13 -35 -1 -107 -36 -147 -72 -21 -18 -49 -55 -64 -83 -24 -45 -27 -62 -27 -151 0 -89 3 -106 27 -151 37 -71 100 -121 182 -146 32 -9 695 -12 704 -3 3 3 -65 5 -151 5 l-157 0 0 151 0 151 34 -6 c25 -5 49 1 97 23 107 50 162 123 175 233 l6 53 -156 -3 c-86 -2 -156 1 -156 5 0 4 -68 7 -150 5 l-151 -3 3 143 3 143 148 2 c82 1 151 4 155 7 3 3 -135 6 -307 6 l-312 0 6 -37z"/>
</g>
<g id="layer109" fill="#37a1c2" stroke="none">
<path d="M215 1053 c25 -145 92 -226 213 -259 26 -7 37 -13 25 -13 -35 -1 -107 -36 -147 -72 -21 -18 -49 -55 -64 -83 -24 -45 -27 -62 -27 -151 0 -89 3 -106 27 -151 37 -71 100 -121 182 -146 32 -9 695 -12 704 -3 3 3 -133 5 -301 5 l-307 0 0 148 0 147 187 -1 c185 -1 188 -1 248 27 103 48 158 122 171 231 l6 53 -156 -3 c-86 -2 -156 1 -156 5 0 4 -68 7 -150 5 l-151 -3 3 143 3 143 148 2 c82 1 151 4 155 7 3 3 -135 6 -307 6 l-312 0 6 -37z"/>
<path d="M995 1040 c3 -5 8 -10 11 -10 3 0 2 5 -1 10 -3 6 -8 10 -11 10 -3 0 -2 -4 1 -10z"/>
<path d="M1111 874 c0 -11 3 -14 6 -6 3 7 2 16 -1 19 -3 4 -6 -2 -5 -13z"/>
</g>
<g id="layer110" fill="#a4cd3a" stroke="none">
<path d="M215 1053 c25 -145 92 -226 213 -259 26 -7 37 -13 25 -13 -35 -1 -107 -36 -147 -72 -21 -18 -49 -55 -64 -83 -24 -45 -27 -62 -27 -151 0 -89 3 -106 27 -151 37 -71 100 -121 182 -146 32 -9 695 -12 704 -3 3 3 -133 5 -301 5 l-307 0 0 148 0 147 187 -1 c185 -1 188 -1 248 27 103 48 158 122 171 231 l6 53 -306 -3 -306 -3 0 156 0 155 -155 0 -156 0 6 -37z"/>
<path d="M858 1083 c7 -3 16 -2 19 1 4 3 -2 6 -13 5 -11 0 -14 -3 -6 -6z"/>
<path d="M913 1073 c4 -3 10 -3 14 0 3 4 0 7 -7 7 -7 0 -10 -3 -7 -7z"/>
<path d="M1122 820 c0 -14 2 -19 5 -12 2 6 2 18 0 25 -3 6 -5 1 -5 -13z"/>
</g>
<g id="layer111" fill="#cca350" stroke="none">
<path d="M215 1053 c25 -145 92 -226 213 -259 26 -7 37 -13 25 -13 -35 -1 -107 -36 -147 -72 -21 -18 -49 -55 -64 -83 -24 -45 -27 -62 -27 -151 0 -89 3 -106 27 -151 37 -71 100 -121 182 -146 32 -9 695 -12 704 -3 3 3 -133 5 -301 5 l-307 0 0 148 0 147 188 -1 c130 -1 194 2 211 11 20 10 16 11 -33 7 l-56 -4 0 146 0 146 -155 0 -155 0 0 155 0 155 -155 0 -156 0 6 -37z"/>
</g>
<g id="layer112" fill="#e7b72e" stroke="none">
</g>
<g id="layer113" fill="#fecb07" stroke="none">
<path d="M215 1053 c25 -145 92 -226 213 -259 26 -7 37 -13 25 -13 -35 -1 -107 -36 -147 -72 -21 -18 -49 -55 -64 -83 -24 -45 -27 -62 -27 -151 0 -89 3 -106 27 -151 37 -71 100 -121 182 -146 32 -9 695 -12 704 -3 3 3 -133 5 -301 5 l-307 0 0 150 0 150 155 0 155 0 0 150 0 150 -155 0 -155 0 0 155 0 155 -155 0 -156 0 6 -37z"/>
</g>
<g id="layer114" fill="#dd7b82" stroke="none">
<path d="M215 1053 c25 -145 92 -226 213 -259 26 -7 37 -13 25 -13 -35 -1 -107 -36 -147 -72 -21 -18 -49 -55 -64 -83 -24 -45 -27 -62 -27 -151 0 -89 3 -106 27 -151 37 -71 100 -121 182 -146 32 -9 695 -12 704 -3 3 3 -127 5 -289 5 -282 0 -385 7 -439 28 -14 5 -27 9 -30 8 -3 0 -20 14 -38 32 -18 18 -32 29 -32 25 0 -4 -6 3 -13 17 -8 14 -19 36 -27 50 -23 43 -26 54 -29 98 l-3 43 144 -1 c79 -1 214 -1 301 0 l157 0 0 150 0 150 -155 0 -155 0 0 155 0 155 -155 0 -156 0 6 -37z"/>
<path d="M880 490 c-41 -6 -43 -7 -18 -14 17 -5 35 -3 55 8 15 8 24 15 18 14 -5 -1 -30 -4 -55 -8z"/>
<path d="M985 430 c3 -5 8 -10 11 -10 3 0 2 5 -1 10 -3 6 -8 10 -11 10 -3 0 -2 -4 1 -10z"/>
<path d="M1055 360 c3 -5 8 -10 11 -10 3 0 2 5 -1 10 -3 6 -8 10 -11 10 -3 0 -2 -4 1 -10z"/>
<path d="M1081 320 c14 -31 19 -36 19 -24 0 6 -7 19 -16 30 -14 18 -14 18 -3 -6z"/>
<path d="M1110 240 c0 -7 3 -10 7 -7 3 4 3 10 0 14 -4 3 -7 0 -7 -7z"/>
<path d="M1120 200 c0 -7 3 -10 7 -7 3 4 3 10 0 14 -4 3 -7 0 -7 -7z"/>
</g>
<g id="layer115" fill="#f0c62f" stroke="none">
<path d="M215 1053 c25 -145 92 -226 213 -259 26 -7 37 -13 25 -13 -35 -1 -107 -36 -147 -72 -21 -18 -49 -55 -64 -83 -24 -45 -27 -62 -27 -151 0 -89 3 -106 27 -151 38 -72 111 -129 191 -148 34 -8 377 -10 385 -2 3 3 -57 6 -134 6 -140 0 -238 10 -284 28 -14 5 -27 9 -30 8 -3 0 -20 14 -38 32 -18 18 -32 29 -32 25 0 -4 -6 3 -13 17 -8 14 -19 36 -27 50 -23 43 -26 54 -29 98 l-3 43 144 -1 c79 -1 214 -1 301 0 l157 0 0 150 0 150 -155 0 -155 0 0 155 0 155 -155 0 -156 0 6 -37z"/>
</g>
<g id="layer116" fill="#d6b692" stroke="none">
<path d="M215 1053 c25 -145 92 -226 213 -259 26 -7 37 -13 25 -13 -35 -1 -107 -36 -147 -72 -48 -41 -84 -113 -92 -181 l-6 -53 311 3 311 3 0 149 0 150 -155 0 -155 0 0 155 0 155 -155 0 -156 0 6 -37z"/>
<path d="M863 1083 c4 -3 10 -3 14 0 3 4 0 7 -7 7 -7 0 -10 -3 -7 -7z"/>
<path d="M943 1063 c4 -3 10 -3 14 0 3 4 0 7 -7 7 -7 0 -10 -3 -7 -7z"/>
<path d="M1121 824 c0 -11 3 -14 6 -6 3 7 2 16 -1 19 -3 4 -6 -2 -5 -13z"/>
<path d="M1122 750 c0 -19 2 -27 5 -17 2 9 2 25 0 35 -3 9 -5 1 -5 -18z"/>
<path d="M1111 693 c-1 -6 -4 -20 -7 -30 -5 -17 -5 -17 6 0 6 10 9 23 6 30 -3 9 -5 9 -5 0z"/>
<path d="M960 510 c-9 -6 -10 -10 -3 -10 6 0 15 5 18 10 8 12 4 12 -15 0z"/>
<path d="M880 491 c-42 -6 -43 -7 -17 -14 18 -5 37 -2 55 7 15 9 23 15 17 14 -5 -1 -30 -4 -55 -7z"/>
<path d="M492 174 c7 -7 319 -7 326 0 3 3 -70 6 -163 6 -93 0 -166 -2 -163 -6z"/>
</g>
<g id="layer117" fill="#fdd954" stroke="none">
<path d="M215 1053 c25 -145 92 -226 213 -259 26 -7 37 -13 25 -13 -35 -1 -107 -36 -147 -72 -48 -41 -84 -113 -92 -181 l-6 -53 311 3 312 3 -3 147 -3 147 -152 3 -153 3 0 154 0 155 -155 0 -156 0 6 -37z"/>
<path d="M216 398 c11 -56 57 -131 102 -165 24 -18 49 -33 55 -32 7 0 3 6 -7 12 -69 43 -136 136 -136 189 0 9 -4 20 -10 23 -6 4 -7 -6 -4 -27z"/>
<path d="M395 193 c6 -6 24 -14 40 -17 20 -5 27 -4 20 3 -5 5 -23 13 -40 17 -20 4 -27 3 -20 -3z"/>
</g>
<g id="layer118" fill="#e4d672" stroke="none">
<path d="M215 1053 c25 -145 92 -226 213 -259 26 -7 37 -13 25 -13 -68 -2 -170 -76 -208 -150 -26 -53 -45 -148 -26 -137 6 4 11 18 11 31 0 34 28 103 58 144 38 52 132 101 194 101 l27 0 3 -142 3 -143 158 -3 158 -3 -3 148 -3 148 -152 3 -153 3 0 154 0 155 -155 0 -156 0 6 -37z"/>
<path d="M1111 684 c0 -11 3 -14 6 -6 3 7 2 16 -1 19 -3 4 -6 -2 -5 -13z"/>
<path d="M1082 620 c-18 -29 -15 -38 4 -12 9 13 14 25 12 27 -2 2 -9 -5 -16 -15z"/>
<path d="M1040 565 c-11 -13 -10 -14 4 -9 9 3 16 10 16 15 0 13 -6 11 -20 -6z"/>
<path d="M1000 530 c-9 -6 -10 -10 -3 -10 6 0 15 5 18 10 8 12 4 12 -15 0z"/>
<path d="M953 503 c4 -3 10 -3 14 0 3 4 0 7 -7 7 -7 0 -10 -3 -7 -7z"/>
<path d="M864 480 c17 -6 36 -5 45 0 11 7 3 9 -29 9 -42 -1 -43 -1 -16 -9z"/>
<path d="M220 378 c0 -7 5 -20 10 -28 8 -12 10 -11 10 7 0 12 -4 25 -10 28 -5 3 -10 0 -10 -7z"/>
<path d="M250 311 c0 -17 85 -101 102 -101 6 0 -7 16 -30 36 -23 19 -49 45 -57 57 -9 13 -15 16 -15 8z"/>
<path d="M395 192 c6 -5 24 -12 40 -16 34 -7 15 7 -25 19 -16 5 -22 4 -15 -3z"/>
<path d="M495 170 c4 -6 11 -8 16 -5 14 9 11 15 -7 15 -8 0 -12 -5 -9 -10z"/>
<path d="M800 170 c0 -7 3 -10 7 -7 3 4 3 10 0 14 -4 3 -7 0 -7 -7z"/>
</g>
<g id="layer119" fill="#8dd7f7" stroke="none">
<path d="M215 1053 c27 -155 104 -239 243 -265 l62 -12 0 -148 0 -148 150 0 150 0 0 150 0 150 -150 0 -150 0 0 155 0 155 -155 0 -156 0 6 -37z"/>
</g>
<g id="layer120" fill="#abd7e5" stroke="none">
<path d="M210 1074 c0 -13 3 -14 13 -6 8 7 73 13 158 15 l144 3 -157 2 c-140 2 -158 0 -158 -14z"/>
<path d="M226 1000 c8 -45 44 -108 81 -140 l28 -25 -26 30 c-45 53 -52 65 -70 118 -14 39 -17 43 -13 17z"/>
<path d="M1030 1016 c0 -2 8 -10 18 -17 15 -13 16 -12 3 4 -13 16 -21 21 -21 13z"/>
<path d="M1100 910 c0 -7 3 -10 7 -7 3 4 3 10 0 14 -4 3 -7 0 -7 -7z"/>
<path d="M1110 880 c0 -7 3 -10 7 -7 3 4 3 10 0 14 -4 3 -7 0 -7 -7z"/>
<path d="M345 830 c3 -5 8 -10 11 -10 3 0 2 5 -1 10 -3 6 -8 10 -11 10 -3 0 -2 -4 1 -10z"/>
<path d="M1120 830 c0 -7 3 -10 7 -7 3 4 3 10 0 14 -4 3 -7 0 -7 -7z"/>
<path d="M380 810 c8 -5 20 -10 25 -10 6 0 3 5 -5 10 -8 5 -19 10 -25 10 -5 0 -3 -5 5 -10z"/>
<path d="M428 793 c6 -2 18 -2 25 0 6 3 1 5 -13 5 -14 0 -19 -2 -12 -5z"/>
<path d="M485 790 c-18 -8 -17 -9 8 -9 l27 -1 0 -150 0 -150 150 0 150 0 0 150 0 150 -148 0 c-81 0 -152 4 -157 9 -6 5 -19 5 -30 1z"/>
</g>
<g id="layer121" fill="#fefffe" stroke="none">
<path d="M211 1074 c0 -11 3 -14 6 -6 3 7 2 16 -1 19 -3 4 -6 -2 -5 -13z"/>
<path d="M520 630 l0 -150 150 0 150 0 0 150 0 150 -150 0 -150 0 0 -150z"/>
<path d="M1120 730 c0 -7 3 -10 7 -7 3 4 3 10 0 14 -4 3 -7 0 -7 -7z"/>
<path d="M1110 680 c0 -7 3 -10 7 -7 3 4 3 10 0 14 -4 3 -7 0 -7 -7z"/>
<path d="M264 668 c-4 -7 -3 -8 4 -4 12 7 16 16 8 16 -3 0 -8 -5 -12 -12z"/>
<path d="M1086 623 c-6 -14 -5 -15 5 -6 7 7 10 15 7 18 -3 3 -9 -2 -12 -12z"/>
<path d="M220 580 c0 -7 3 -10 7 -7 3 4 3 10 0 14 -4 3 -7 0 -7 -7z"/>
<path d="M211 524 c0 -11 3 -14 6 -6 3 7 2 16 -1 19 -3 4 -6 -2 -5 -13z"/>
<path d="M1004 528 c-4 -7 -3 -8 4 -4 7 4 12 9 12 12 0 8 -9 4 -16 -8z"/>
<path d="M890 480 c-8 -5 -10 -10 -5 -10 6 0 17 5 25 10 8 5 11 10 5 10 -5 0 -17 -5 -25 -10z"/>
<path d="M210 420 c0 -7 3 -10 7 -7 3 4 3 10 0 14 -4 3 -7 0 -7 -7z"/>
<path d="M220 370 c0 -7 3 -10 7 -7 3 4 3 10 0 14 -4 3 -7 0 -7 -7z"/>
<path d="M250 313 c0 -6 9 -21 21 -34 l20 -24 -17 30 c-24 39 -24 40 -24 28z"/>
<path d="M335 220 c3 -5 8 -10 11 -10 3 0 2 5 -1 10 -3 6 -8 10 -11 10 -3 0 -2 -4 1 -10z"/>
<path d="M443 173 c4 -3 10 -3 14 0 3 4 0 7 -7 7 -7 0 -10 -3 -7 -7z"/>
</g>


</svg>