<!DOCTYPE svg PUBLIC "-//W3C//DTD SVG 20010904//EN" "http://www.w3.org/TR/2001/REC-SVG-20010904/DTD/svg10.dtd">
<svg version="1.0" xmlns="http://www.w3.org/2000/svg" width="68px" height="64px" viewBox="0 0 680 640" preserveAspectRatio="xMidYMid meet">
<g id="layer101" fill="#268446" stroke="none">
<path d="M0 320 l0 -320 340 0 340 0 0 320 0 320 -340 0 -340 0 0 -320z"/>
</g>
<g id="layer102" fill="#e81c23" stroke="none">
<path d="M0 320 l0 -320 340 0 340 0 0 320 0 320 -340 0 -340 0 0 -320z m497 200 c38 -23 58 -53 67 -97 l6 -33 -81 0 c-70 0 -80 2 -75 16 3 9 6 42 6 75 0 55 2 59 23 59 12 0 36 -9 54 -20z"/>
</g>
<g id="layer103" fill="#dc6125" stroke="none">
<path d="M0 320 l0 -320 340 0 340 0 0 320 0 320 -340 0 -340 0 0 -320z m497 200 c38 -23 58 -53 67 -97 l6 -33 -81 0 c-70 0 -80 2 -75 16 3 9 6 42 6 75 0 55 2 59 23 59 12 0 36 -9 54 -20z m0 -306 c28 -17 51 -52 63 -93 l9 -31 -75 0 -74 0 0 75 0 75 28 -6 c15 -4 37 -13 49 -20z"/>
</g>
<g id="layer104" fill="#0594d6" stroke="none">
<path d="M0 320 l0 -320 340 0 340 0 0 320 0 320 -340 0 -340 0 0 -320z m497 200 c38 -23 58 -53 67 -97 l6 -33 -81 0 c-70 0 -80 2 -75 16 3 9 6 42 6 75 0 55 2 59 23 59 12 0 36 -9 54 -20z m3 -309 c26 -19 53 -60 65 -98 6 -23 6 -23 -92 -22 -54 1 -90 3 -80 6 17 4 22 40 17 117 -2 28 0 29 32 22 18 -3 44 -15 58 -25z"/>
</g>
<g id="layer105" fill="#f48520" stroke="none">
<path d="M0 320 l0 -320 340 0 340 0 0 320 0 320 -340 0 -340 0 0 -320z m497 200 c38 -23 58 -53 67 -97 l6 -33 -155 0 -155 0 0 75 0 75 103 0 c83 0 108 -4 134 -20z m3 -309 c26 -19 53 -60 65 -98 6 -23 6 -23 -92 -22 -54 1 -90 3 -80 6 17 4 22 40 17 117 -2 28 0 29 32 22 18 -3 44 -15 58 -25z"/>
</g>
<g id="layer106" fill="#a5ce39" stroke="none">
<path d="M0 320 l0 -320 340 0 340 0 0 320 0 320 -340 0 -340 0 0 -320z m497 200 c38 -23 58 -53 67 -97 l6 -33 -155 0 -155 0 0 75 0 75 103 0 c83 0 108 -4 134 -20z m-7 -303 c34 -22 62 -62 75 -104 l6 -23 -155 0 -156 0 0 75 0 75 99 0 c85 0 102 -3 131 -23z"/>
</g>
<g id="layer107" fill="#fccb0b" stroke="none">
<path d="M0 320 l0 -320 340 0 340 0 0 320 0 320 -340 0 -340 0 0 -320z m488 206 c41 -21 63 -50 73 -96 20 -90 -23 -167 -98 -177 l-43 -6 0 72 0 71 -80 0 -80 0 0 75 0 75 100 0 c67 0 110 -5 128 -14z m2 -309 c34 -22 62 -62 75 -104 l6 -23 -155 0 -156 0 0 75 0 75 99 0 c85 0 102 -3 131 -23z"/>
</g>
<g id="layer108" fill="#fad759" stroke="none">
<path d="M0 320 l0 -320 340 0 340 0 0 320 0 320 -340 0 -340 0 0 -320z m488 206 c41 -21 63 -50 73 -96 20 -90 -23 -167 -98 -177 l-43 -6 0 72 0 71 -80 0 -80 0 0 75 0 75 100 0 c67 0 110 -5 128 -14z m2 -309 c34 -22 62 -62 75 -106 l7 -23 -189 3 -190 4 -38 38 c-20 20 -35 37 -32 37 3 0 1 16 -3 35 l-8 35 173 0 c162 0 174 -1 205 -23z"/>
</g>
<g id="layer109" fill="#91d7f3" stroke="none">
<path d="M0 320 l0 -320 340 0 340 0 0 320 0 320 -340 0 -340 0 0 -320z m497 200 c48 -29 66 -63 67 -129 1 -48 -4 -64 -26 -93 -14 -19 -41 -39 -58 -44 l-32 -9 38 -25 c37 -25 65 -62 79 -108 l7 -23 -191 3 -191 3 -37 38 c-37 37 -38 39 -36 108 2 65 4 72 36 104 20 20 48 36 70 40 l37 7 0 74 0 74 103 0 c83 0 108 -4 134 -20z"/>
</g>
<g id="layer110" fill="#ebd7a4" stroke="none">
<path d="M0 320 l0 -320 340 0 340 0 0 320 0 320 -340 0 -340 0 0 -320z m497 200 c48 -29 66 -63 67 -129 1 -48 -4 -64 -26 -93 -14 -19 -41 -39 -58 -44 l-32 -9 38 -25 c37 -25 65 -62 79 -108 l7 -23 -191 3 -191 3 -37 38 c-37 37 -38 39 -36 108 2 65 4 72 35 103 18 18 47 36 63 41 l30 8 -33 7 c-41 9 -71 35 -88 77 -27 63 -31 61 164 62 159 1 180 -1 209 -19z"/>
<path d="M260 315 l0 -75 80 0 80 0 0 75 0 75 -80 0 -80 0 0 -75z"/>
</g>
<g id="layer111" fill="#fdfefc" stroke="none">
<path d="M0 320 l0 -320 340 0 340 0 0 320 0 320 -340 0 -340 0 0 -320z m497 200 c50 -30 66 -63 67 -136 1 -36 -4 -68 -10 -72 -6 -4 -13 -15 -17 -25 -3 -9 -22 -24 -41 -34 l-35 -16 32 -21 c29 -19 86 -111 75 -121 -2 -2 -80 -5 -173 -6 -164 -2 -214 5 -230 31 -3 5 -11 7 -17 4 -6 -4 -8 -2 -4 4 3 6 0 14 -7 19 -22 13 -34 74 -24 123 10 49 59 110 88 110 10 0 21 5 24 10 3 6 -2 10 -13 10 -28 0 -72 38 -88 76 -27 64 -32 62 164 63 159 1 180 -1 209 -19z"/>
<path d="M260 315 l0 -75 70 1 c44 1 73 6 80 14 6 8 10 39 8 72 l-3 58 -77 3 -78 3 0 -76z"/>
</g>


</svg>