<svg id="Layer_1" enable-background="new 0 0 512 512" height="512" viewBox="0 0 512 512" width="512" xmlns="http://www.w3.org/2000/svg"><g><g><path d="m119.219 197.592c-1.183-5.447-6.013-9.528-11.8-9.528h-15.972c-6.673 0-12.083 5.424-12.083 12.116v15.144l20.069.071z" fill="#606e7a"/><path d="m119.501 200.179c0-.889-.102-1.753-.283-2.588l-39.854 17.732v18.581l20.069.071 20.069-17.929v-15.867z" fill="#56626b"/><path d="m7.913 286.73 209.426-37.482 7.389-38.263-10.561-37.055-195.784 87.105c-7.015 3.121-12.462 8.661-15.549 15.384 0 6.276 3.191 10.567 5.079 10.311z" fill="#a4acc2"/><path d="m7.913 277.73c-1.888.257-3.678-.271-5.079-1.31-1.832 3.988-2.834 8.393-2.834 12.96 0 4.236 3.726 7.5 7.912 6.931l210.204-28.589 8.614-9.159-9.393-9.316z" fill="#939bae"/><path d="m392.782 197.592c1.183-5.447 6.013-9.528 11.8-9.528h15.972c6.673 0 12.083 5.424 12.083 12.116v15.144l-20.069.071z" fill="#606e7a"/><path d="m392.499 200.179c0-.889.102-1.753.283-2.588l39.854 17.732v18.581l-20.069.071-20.069-17.929v-15.867z" fill="#56626b"/><path d="m504.088 286.73-209.426-37.482-7.389-38.263 10.561-37.055 195.784 87.106c7.015 3.121 12.462 8.661 15.549 15.384 0 6.275-3.192 10.566-5.079 10.31z" fill="#a4acc2"/><path d="m504.088 277.73c1.888.257 3.678-.271 5.079-1.31 1.831 3.989 2.834 8.394 2.834 12.961 0 4.236-3.726 7.5-7.913 6.931l-210.204-28.589-8.614-9.159 9.392-9.316z" fill="#939bae"/><path d="m139.612 491.523c0 5.857 3.515 11.218 5.7 10.768l109.647-22.563c.686-.141 1.394-.141 2.081 0l109.647 22.563c2.185.45 5.7-5.133 5.7-10.768-1.975-4.738-5.54-8.746-10.229-11.222l-75.541-39.895 14.267-338.762c1.489-35.355-10.617-69.934-33.818-96.597-5.856-6.729-16.289-6.728-22.143.003l-.003.003c-23.189 26.661-35.287 61.23-33.799 96.575l14.267 338.776-75.548 39.898c-4.688 2.475-8.252 6.484-10.228 11.221z" fill="#eef1f3"/><g><path d="m366.687 493.292-109.647-22.564c-.686-.141-1.394-.141-2.081 0l-109.647 22.563c-2.185.45-4.29-.309-5.7-1.768-1.126 2.7-1.74 5.635-1.74 8.664v5.612c0 3.926 3.603 6.863 7.449 6.072l109.639-22.562c.686-.141 1.394-.141 2.081 0l109.639 22.562c3.845.791 7.449-2.146 7.449-6.072v-5.612c0-3.029-.615-5.963-1.74-8.664-1.412 1.459-3.516 2.218-5.702 1.769z" fill="#dee7ed"/></g></g></g></svg>