<?xml version="1.0" encoding="utf-8"?>
<!-- Svg Vector Icons : http://www.onlinewebfonts.com/icon -->
<!DOCTYPE svg PUBLIC "-//W3C//DTD SVG 1.1//EN" "http://www.w3.org/Graphics/SVG/1.1/DTD/svg11.dtd">
<svg version="1.1" xmlns="http://www.w3.org/2000/svg" xmlns:xlink="http://www.w3.org/1999/xlink" x="0px" y="0px" viewBox="0 0 1000 1000" enable-background="new 0 0 1000 1000" xml:space="preserve">
<metadata> Svg Vector Icons : http://www.onlinewebfonts.com/icon </metadata>
<g><path d="M512.2,252.3c-65.1,0-117.8,52.7-117.8,117.8c0,65.1,52.7,117.8,117.8,117.8c65.1,0,117.8-52.8,117.8-117.8C630,305,577.3,252.3,512.2,252.3z M500,10C229.4,10,10,229.4,10,500c0,270.6,219.4,490,490,490c270.5,0,490-219.4,490-490C990,229.4,770.6,10,500,10z M782.2,793.5C739.7,671.5,648.4,608,512.1,608c-136.4,0-227.6,63.5-270,185.6c-12-11.3-48.1-23.1-58.8-35.7c40.6-96.6,122.2-171.6,223.1-202.9c-62.9-36.6-105.3-104.5-105.3-182.4c0-116.5,94.5-211,211-211c116.6,0,211,94.5,211,211c0,77.9-42.4,145.8-105.2,182.4c101,31.3,182.7,106.3,223.3,202.8C830.4,770.3,794.3,782.2,782.2,793.5L782.2,793.5z"/></g>
</svg>